<svg width="12" height="12" viewBox="0 0 12 12" fill="none" xmlns="http://www.w3.org/2000/svg">
<path d="M0.166656 6.00001C0.166656 6.34649 0.456556 6.62928 0.795951 6.62928H5.37071V11.2041C5.37071 11.5435 5.65354 11.8333 6 11.8333C6.34647 11.8333 6.63639 11.5435 6.63639 11.2041V6.62928H11.2041C11.5435 6.62928 11.8333 6.34649 11.8333 6.00001C11.8333 5.65355 11.5435 5.36365 11.2041 5.36365H6.63639V0.795963C6.63639 0.456568 6.34647 0.166668 6 0.166668C5.65354 0.166668 5.37071 0.456568 5.37071 0.795963V5.36365H0.795951C0.456556 5.36365 0.166656 5.65355 0.166656 6.00001Z" fill="white"/>
</svg>
