<svg width="16" height="16" viewBox="0 0 16 16" fill="none" xmlns="http://www.w3.org/2000/svg">
<path d="M0.734375 12.2535C0.734375 12.8185 1.16785 13.1901 1.90322 13.1901H5.16978C5.2317 14.6841 6.40054 15.9922 8.03384 15.9922C9.67488 15.9922 10.8437 14.6918 10.9056 13.1901H14.1722C14.8998 13.1901 15.341 12.8185 15.341 12.2535C15.341 11.4794 14.5515 10.7827 13.8858 10.0938C13.3749 9.55976 13.2356 8.46056 13.1736 7.57035C13.1195 4.52055 12.3299 2.55442 10.2709 1.81132C10.0077 0.797288 9.17948 0 8.03384 0C6.89595 0 6.05996 0.797288 5.80451 1.81132C3.74549 2.55442 2.95595 4.52055 2.90176 7.57035C2.83984 8.46056 2.7005 9.55976 2.18962 10.0938C1.51618 10.7827 0.734375 11.4794 0.734375 12.2535ZM2.23607 12.0213V11.9284C2.3754 11.7039 2.83984 11.2472 3.24236 10.7983C3.79968 10.179 4.06286 9.18041 4.13253 7.67102C4.19445 4.28833 5.20074 3.21238 6.52439 2.84857C6.71791 2.80213 6.82629 2.70923 6.83403 2.50798C6.85725 1.70294 7.32169 1.13788 8.03384 1.13788C8.7537 1.13788 9.21039 1.70294 9.24137 2.50798C9.2491 2.70923 9.34976 2.80213 9.54324 2.84857C10.8747 3.21238 11.8809 4.28833 11.9429 7.67102C12.0125 9.18041 12.2757 10.179 12.8253 10.7983C13.2356 11.2472 13.6923 11.7039 13.8316 11.9284V12.0213H2.23607ZM6.37733 13.1901H9.69807C9.63617 14.2428 8.97048 14.9008 8.03384 14.9008C7.10495 14.9008 6.43151 14.2428 6.37733 13.1901Z" fill="#798793"/>
</svg>
