<svg width="32" height="33" viewBox="0 0 32 33" fill="none" xmlns="http://www.w3.org/2000/svg">
<circle cx="16" cy="16.4844" r="16" fill="#F2F3F5"/>
<g clip-path="url(#clip0_2085_1433)">
<path d="M11.661 24.4844H20.1612C21.7101 24.4844 22.4882 23.7136 22.4882 22.187V14.791C22.4882 13.2644 21.7101 12.4936 20.1612 12.4936H18.0936V13.6868H20.139C20.8727 13.6868 21.2951 14.087 21.2951 14.8577V22.1203C21.2951 22.891 20.8727 23.2912 20.139 23.2912H11.6758C10.9347 23.2912 10.5271 22.891 10.5271 22.1203V14.8577C10.5271 14.087 10.9347 13.6868 11.6758 13.6868H13.7286V12.4936H11.661C10.1121 12.4936 9.33398 13.2644 9.33398 14.791V22.187C9.33398 23.7136 10.1121 24.4844 11.661 24.4844ZM15.9074 19.608C16.063 19.608 16.189 19.5635 16.3372 19.4154L18.8421 16.992C18.9532 16.8808 19.0199 16.7622 19.0199 16.6067C19.0199 16.3028 18.7828 16.0879 18.4789 16.0879C18.3308 16.0879 18.1825 16.1472 18.0788 16.2658L16.9523 17.4589L16.4558 17.985L16.5002 16.8734V9.06242C16.5002 8.75116 16.226 8.48438 15.9074 8.48438C15.5887 8.48438 15.3219 8.75116 15.3219 9.06242V16.8734L15.3664 17.985L14.8625 17.4589L13.7434 16.2658C13.6397 16.1472 13.4766 16.0879 13.3358 16.0879C13.0246 16.0879 12.8023 16.3028 12.8023 16.6067C12.8023 16.7622 12.8615 16.8808 12.9727 16.992L15.4776 19.4154C15.6332 19.5635 15.7592 19.608 15.9074 19.608Z" fill="#117DBC"/>
</g>
<defs>
<clipPath id="clip0_2085_1433">
<rect width="16" height="16" fill="white" transform="translate(8 8.48438)"/>
</clipPath>
</defs>
</svg>
