<svg width="16" height="16" viewBox="0 0 16 16" fill="none" xmlns="http://www.w3.org/2000/svg">
<path d="M7.24489 15.989H8.75518C9.33085 15.989 9.77197 15.6376 9.90652 15.0843L10.228 13.6862L10.4673 13.6039L11.686 14.3516C12.172 14.6582 12.7327 14.5834 13.144 14.1721L14.1907 13.1329C14.6019 12.7217 14.6766 12.1535 14.3701 11.675L13.6075 10.4637L13.6972 10.2394L15.0954 9.91043C15.6411 9.77587 16 9.32729 16 8.75908V7.27865C16 6.71044 15.6486 6.26185 15.0954 6.12728L13.7122 5.79083L13.6149 5.55157L14.3776 4.34036C14.6841 3.86186 14.6093 3.30111 14.1981 2.88241L13.1514 1.83568C12.7477 1.43194 12.187 1.35718 11.7009 1.65624L10.4823 2.40391L10.228 2.30672L9.90652 0.908581C9.77197 0.355308 9.33085 0.00390625 8.75518 0.00390625H7.24489C6.66915 0.00390625 6.22804 0.355308 6.09346 0.908581L5.76449 2.30672L5.51029 2.40391L4.29907 1.65624C3.81309 1.35718 3.24486 1.43194 2.84112 1.83568L1.80187 2.88241C1.39066 3.30111 1.30841 3.86186 1.62243 4.34036L2.37757 5.55157L2.28785 5.79083L0.904675 6.12728C0.351402 6.26185 0 6.71044 0 7.27865V8.75908C0 9.32729 0.358879 9.77587 0.904675 9.91043L2.30281 10.2394L2.38505 10.4637L1.62991 11.675C1.31589 12.1535 1.39813 12.7217 1.80935 13.1329L2.8486 14.1721C3.25982 14.5834 3.82804 14.6582 4.31402 14.3516L5.52524 13.6039L5.76449 13.6862L6.09346 15.0843C6.22804 15.6376 6.66915 15.989 7.24489 15.989ZM7.36451 14.8226C7.23742 14.8226 7.17011 14.7703 7.14766 14.6506L6.69907 12.7965C6.243 12.6843 5.81683 12.5049 5.49533 12.303L3.86542 13.3049C3.77571 13.3721 3.67851 13.3572 3.58879 13.2675L2.70655 12.3852C2.6243 12.303 2.61682 12.2133 2.67664 12.1086L3.67851 10.4936C3.50654 10.1796 3.31216 9.75342 3.19253 9.29737L1.33832 8.85625C1.2187 8.83379 1.16635 8.76655 1.16635 8.63946V7.39081C1.16635 7.25626 1.21122 7.19641 1.33832 7.17402L3.18505 6.72544C3.30468 6.23943 3.52898 5.7983 3.66356 5.52167L2.66916 3.90672C2.60187 3.79457 2.60935 3.70484 2.69159 3.61513L3.58131 2.74783C3.67103 2.65812 3.75327 2.64316 3.86542 2.71045L5.48038 3.68989C5.80188 3.51045 6.25795 3.32353 6.70654 3.19644L7.14766 1.34223C7.17011 1.2226 7.23742 1.17026 7.36451 1.17026H8.63555C8.76264 1.17026 8.82989 1.2226 8.84488 1.34223L9.30093 3.21138C9.7645 3.33101 10.1682 3.51793 10.5047 3.69737L12.1271 2.71045C12.2467 2.64316 12.3215 2.65812 12.4187 2.74783L13.301 3.61513C13.3907 3.70484 13.3907 3.79457 13.3234 3.90672L12.329 5.52167C12.4711 5.7983 12.6879 6.23943 12.8075 6.72544L14.6617 7.17402C14.7813 7.19641 14.8337 7.25626 14.8337 7.39081V8.63946C14.8337 8.76655 14.7738 8.83379 14.6617 8.85625L12.8 9.29737C12.6804 9.75342 12.4935 10.1796 12.314 10.4936L13.3159 12.1086C13.3757 12.2133 13.3757 12.303 13.286 12.3852L12.4112 13.2675C12.314 13.3572 12.2243 13.3721 12.1271 13.3049L10.4972 12.303C10.1757 12.5049 9.75704 12.6843 9.30093 12.7965L8.84488 14.6506C8.82989 14.7703 8.76264 14.8226 8.63555 14.8226H7.36451ZM8.00003 10.8525C9.56264 10.8525 10.8486 9.56654 10.8486 7.99641C10.8486 6.44127 9.56264 5.15531 8.00003 5.15531C6.43736 5.15531 5.14393 6.44127 5.14393 7.99641C5.14393 9.55908 6.4299 10.8525 8.00003 10.8525ZM8.00003 9.69364C7.07288 9.69364 6.31028 8.93103 6.31028 7.99641C6.31028 7.07679 7.07288 6.31419 8.00003 6.31419C8.91219 6.31419 9.6748 7.07679 9.6748 7.99641C9.6748 8.92356 8.91219 9.69364 8.00003 9.69364Z" fill="#798793"/>
</svg>
