<svg width="16" height="17" viewBox="0 0 16 17" fill="none" xmlns="http://www.w3.org/2000/svg">
<path d="M2.40384 16.2502H13.4068C14.8599 16.2502 15.5514 15.8126 15.5514 14.8497C15.5514 12.5563 12.654 9.2388 7.9097 9.2388C3.15663 9.2388 0.259277 12.5563 0.259277 14.8497C0.259277 15.8126 0.95079 16.2502 2.40384 16.2502ZM1.99244 14.9285C1.76485 14.9285 1.66856 14.8672 1.66856 14.6834C1.66856 13.2478 3.89191 10.5606 7.9097 10.5606C11.9187 10.5606 14.142 13.2478 14.142 14.6834C14.142 14.8672 14.0546 14.9285 13.827 14.9285H1.99244ZM7.9097 8.1534C9.99295 8.1534 11.6911 6.29769 11.6911 4.03934C11.6911 1.79848 10.0018 0.0390625 7.9097 0.0390625C5.83515 0.0390625 4.12825 1.83349 4.12825 4.05684C4.13701 6.30645 5.82639 8.1534 7.9097 8.1534ZM7.9097 6.83165C6.6317 6.83165 5.53754 5.60618 5.53754 4.05684C5.53754 2.53376 6.61419 1.36082 7.9097 1.36082C9.21395 1.36082 10.2819 2.51625 10.2819 4.03934C10.2819 5.58868 9.1964 6.83165 7.9097 6.83165Z" fill="#798793"/>
</svg>
