<svg width="18" height="18" viewBox="0 0 18 18" fill="none" xmlns="http://www.w3.org/2000/svg">
<path d="M2.22161 8.27867H6.30852C7.44676 8.27867 8.02036 7.70506 8.02036 6.52201V2.51576C8.02036 1.33271 7.44676 0.768066 6.30852 0.768066H2.22161C1.08337 0.768066 0.509766 1.33271 0.509766 2.51576V6.52201C0.509766 7.70506 1.08337 8.27867 2.22161 8.27867ZM2.23953 7.01495C1.92584 7.01495 1.77348 6.85362 1.77348 6.52201V2.51576C1.77348 2.19311 1.92584 2.03178 2.23953 2.03178H6.28164C6.59532 2.03178 6.75665 2.19311 6.75665 2.51576V6.52201C6.75665 6.85362 6.59532 7.01495 6.28164 7.01495H2.23953ZM11.22 8.27867H15.2979C16.4362 8.27867 17.0098 7.70506 17.0098 6.52201V2.51576C17.0098 1.33271 16.4362 0.768066 15.2979 0.768066H11.22C10.0728 0.768066 9.49918 1.33271 9.49918 2.51576V6.52201C9.49918 7.70506 10.0728 8.27867 11.22 8.27867ZM11.2379 7.01495C10.9153 7.01495 10.7629 6.85362 10.7629 6.52201V2.51576C10.7629 2.19311 10.9153 2.03178 11.2379 2.03178H15.28C15.5937 2.03178 15.7461 2.19311 15.7461 2.51576V6.52201C15.7461 6.85362 15.5937 7.01495 15.28 7.01495H11.2379ZM2.22161 17.2681H6.30852C7.44676 17.2681 8.02036 16.7035 8.02036 15.5204V11.5052C8.02036 10.3311 7.44676 9.75745 6.30852 9.75745H2.22161C1.08337 9.75745 0.509766 10.3311 0.509766 11.5052V15.5204C0.509766 16.7035 1.08337 17.2681 2.22161 17.2681ZM2.23953 16.0044C1.92584 16.0044 1.77348 15.8431 1.77348 15.5204V11.5141C1.77348 11.1825 1.92584 11.0212 2.23953 11.0212H6.28164C6.59532 11.0212 6.75665 11.1825 6.75665 11.5141V15.5204C6.75665 15.8431 6.59532 16.0044 6.28164 16.0044H2.23953ZM11.22 17.2681H15.2979C16.4362 17.2681 17.0098 16.7035 17.0098 15.5204V11.5052C17.0098 10.3311 16.4362 9.75745 15.2979 9.75745H11.22C10.0728 9.75745 9.49918 10.3311 9.49918 11.5052V15.5204C9.49918 16.7035 10.0728 17.2681 11.22 17.2681ZM11.2379 16.0044C10.9153 16.0044 10.7629 15.8431 10.7629 15.5204V11.5141C10.7629 11.1825 10.9153 11.0212 11.2379 11.0212H15.28C15.5937 11.0212 15.7461 11.1825 15.7461 11.5141V15.5204C15.7461 15.8431 15.5937 16.0044 15.28 16.0044H11.2379Z" fill="#798793"/>
</svg>
