<svg width="10" height="6" viewBox="0 0 10 6" fill="none" xmlns="http://www.w3.org/2000/svg">
<path d="M5.00287 5.77835C5.14682 5.77835 5.29071 5.72078 5.38862 5.61137L9.84456 1.04605C9.94242 0.94818 10 0.821521 10 0.6776C10 0.378231 9.77544 0.147949 9.47611 0.147949C9.33217 0.147949 9.19977 0.205521 9.10186 0.297634L4.69199 4.8054H5.308L0.898096 0.297634C0.805984 0.205521 0.673572 0.147949 0.523893 0.147949C0.224525 0.147949 0 0.378231 0 0.6776C0 0.821521 0.0575707 0.94818 0.15544 1.05181L4.61139 5.61137C4.72078 5.72078 4.85319 5.77835 5.00287 5.77835Z" fill="#0A0A0A"/>
</svg>
