<svg width="19" height="18" viewBox="0 0 19 18" fill="none" xmlns="http://www.w3.org/2000/svg">
<path d="M10.5337 12.9612C12.2498 12.9612 13.4986 12.0024 13.4986 10.665C13.4986 9.53707 12.8783 8.93274 11.3394 8.56217L10.1953 8.28016C9.29298 8.05458 8.90625 7.74039 8.90625 7.20057C8.90625 6.52379 9.53471 6.0565 10.4693 6.0565C11.3152 6.0565 11.8309 6.41906 12.1129 7.19251C12.2418 7.4745 12.4593 7.60341 12.6849 7.60341C13.1039 7.60341 13.3456 7.23279 13.2005 6.74939C12.975 5.89536 12.0082 4.993 10.4693 4.993C8.83379 4.993 7.6655 5.93565 7.6655 7.24891C7.6655 8.35269 8.37453 9.02948 9.8489 9.37592L11.001 9.64982C11.9034 9.85931 12.2418 10.1655 12.2418 10.7536C12.2418 11.4465 11.573 11.8977 10.5337 11.8977C9.59108 11.8977 9.01907 11.5432 8.72901 10.7778C8.60815 10.5038 8.39062 10.3749 8.16504 10.3749C7.75419 10.3749 7.53662 10.7053 7.62525 11.1887C7.81861 12.1797 8.97879 12.9612 10.5337 12.9612ZM10.0584 13.7508C10.0584 14.0166 10.2759 14.2422 10.5418 14.2422C10.8077 14.2422 11.0333 14.0166 11.0333 13.7508V4.18733C11.0333 3.92145 10.8077 3.69586 10.5418 3.69586C10.2759 3.69586 10.0584 3.92145 10.0584 4.18733V13.7508ZM10.5418 17.1829C15.0295 17.1829 18.7598 13.4527 18.7598 8.96499C18.7598 4.46931 15.0295 0.74707 10.5418 0.74707C6.04611 0.74707 2.32387 4.46125 2.32387 8.95694H3.69353C3.69353 5.15414 6.739 2.12479 10.5418 2.12479C14.3446 2.12479 17.3901 5.1622 17.3901 8.96499C17.3901 12.7678 14.3446 15.8294 10.5418 15.8133C8.24562 15.8052 6.23142 14.6934 4.99873 12.9773C4.74897 12.647 4.3703 12.5422 4.03191 12.7436C3.70964 12.9451 3.62102 13.3882 3.89494 13.7427C5.42574 15.7972 7.82665 17.1829 10.5418 17.1829ZM1.33289 7.41005C0.752796 7.41005 0.607774 7.80481 0.921989 8.25602L2.72671 10.818C2.99258 11.1887 3.37931 11.1806 3.63713 10.818L5.44185 8.24798C5.74801 7.80481 5.60299 7.41005 5.03096 7.41005H1.33289Z" fill="#798793"/>
</svg>
