<svg width="19" height="16" viewBox="0 0 19 16" fill="none" xmlns="http://www.w3.org/2000/svg">
<path d="M7.58424 15.186H11.9353V9.69619C11.9353 9.34935 11.709 9.1231 11.3622 9.1231H8.16486C7.81043 9.1231 7.58424 9.34935 7.58424 9.69619V15.186ZM4.63576 15.9626H14.8385C15.9093 15.9626 16.5352 15.3518 16.5352 14.2961V5.96349L15.3211 5.134V13.9869C15.3211 14.4771 15.0572 14.7486 14.5821 14.7486H4.89215C4.40953 14.7486 4.1456 14.4771 4.1456 13.9869V5.14154L2.93153 5.96349V14.2961C2.93153 15.3518 3.55742 15.9626 4.63576 15.9626ZM0.759766 7.56967C0.759766 7.87886 1.00107 8.17293 1.40828 8.17293C1.61942 8.17293 1.79286 8.05987 1.95122 7.93163L9.49957 1.59735C9.66546 1.44653 9.86906 1.44653 10.035 1.59735L17.5833 7.93163C17.7342 8.05987 17.9076 8.17293 18.1188 8.17293C18.4732 8.17293 18.7598 7.95428 18.7598 7.59232C18.7598 7.36607 18.6843 7.2153 18.526 7.07952L10.676 0.481304C10.118 0.00623189 9.42416 0.00623189 8.8586 0.481304L1.00107 7.07952C0.835174 7.2153 0.759766 7.39625 0.759766 7.56967ZM14.6424 4.16877L16.5352 5.76743V2.28356C16.5352 1.95177 16.324 1.74062 15.9923 1.74062H15.1854C14.8611 1.74062 14.6424 1.95177 14.6424 2.28356V4.16877Z" fill="#798793"/>
</svg>
