<svg width="16" height="16" viewBox="0 0 16 16" fill="none" xmlns="http://www.w3.org/2000/svg">
<g clip-path="url(#clip0_2116_2518)">
<path d="M2.56207 15.3326H13.4445C15.1095 15.3326 15.9381 14.504 15.9381 12.8629V3.13567C15.9381 1.49455 15.1095 0.666016 13.4445 0.666016H2.56207C0.897043 0.666016 0.0605469 1.48658 0.0605469 3.13567V12.8629C0.0605469 14.512 0.897043 15.3326 2.56207 15.3326ZM2.44257 14.0499C1.73354 14.0499 1.34317 13.6755 1.34317 12.9346V5.42209C1.34317 4.68916 1.73354 4.30677 2.44257 4.30677H13.548C14.2571 4.30677 14.6554 4.68916 14.6554 5.42209V12.9346C14.6554 13.6755 14.2571 14.0499 13.548 14.0499H2.44257ZM6.44978 7.16678H6.91978C7.19864 7.16678 7.28627 7.08712 7.28627 6.80828V6.33825C7.28627 6.05942 7.19864 5.97178 6.91978 5.97178H6.44978C6.17095 5.97178 6.07535 6.05942 6.07535 6.33825V6.80828C6.07535 7.08712 6.17095 7.16678 6.44978 7.16678ZM9.09473 7.16678H9.56475C9.84355 7.16678 9.93913 7.08712 9.93913 6.80828V6.33825C9.93913 6.05942 9.84355 5.97178 9.56475 5.97178H9.09473C8.81586 5.97178 8.72028 6.05942 8.72028 6.33825V6.80828C8.72028 7.08712 8.81586 7.16678 9.09473 7.16678ZM11.7396 7.16678H12.2097C12.4884 7.16678 12.5841 7.08712 12.5841 6.80828V6.33825C12.5841 6.05942 12.4884 5.97178 12.2097 5.97178H11.7396C11.4608 5.97178 11.3731 6.05942 11.3731 6.33825V6.80828C11.3731 7.08712 11.4608 7.16678 11.7396 7.16678ZM3.80486 9.77189H4.26692C4.55373 9.77189 4.64136 9.69221 4.64136 9.41335V8.94333C4.64136 8.66453 4.55373 8.58486 4.26692 8.58486H3.80486C3.51806 8.58486 3.43043 8.66453 3.43043 8.94333V9.41335C3.43043 9.69221 3.51806 9.77189 3.80486 9.77189ZM6.44978 9.77189H6.91978C7.19864 9.77189 7.28627 9.69221 7.28627 9.41335V8.94333C7.28627 8.66453 7.19864 8.58486 6.91978 8.58486H6.44978C6.17095 8.58486 6.07535 8.66453 6.07535 8.94333V9.41335C6.07535 9.69221 6.17095 9.77189 6.44978 9.77189ZM9.09473 9.77189H9.56475C9.84355 9.77189 9.93913 9.69221 9.93913 9.41335V8.94333C9.93913 8.66453 9.84355 8.58486 9.56475 8.58486H9.09473C8.81586 8.58486 8.72028 8.66453 8.72028 8.94333V9.41335C8.72028 9.69221 8.81586 9.77189 9.09473 9.77189ZM11.7396 9.77189H12.2097C12.4884 9.77189 12.5841 9.69221 12.5841 9.41335V8.94333C12.5841 8.66453 12.4884 8.58486 12.2097 8.58486H11.7396C11.4608 8.58486 11.3731 8.66453 11.3731 8.94333V9.41335C11.3731 9.69221 11.4608 9.77189 11.7396 9.77189ZM3.80486 12.3849H4.26692C4.55373 12.3849 4.64136 12.2973 4.64136 12.0185V11.5484C4.64136 11.2696 4.55373 11.1899 4.26692 11.1899H3.80486C3.51806 11.1899 3.43043 11.2696 3.43043 11.5484V12.0185C3.43043 12.2973 3.51806 12.3849 3.80486 12.3849ZM6.44978 12.3849H6.91978C7.19864 12.3849 7.28627 12.2973 7.28627 12.0185V11.5484C7.28627 11.2696 7.19864 11.1899 6.91978 11.1899H6.44978C6.17095 11.1899 6.07535 11.2696 6.07535 11.5484V12.0185C6.07535 12.2973 6.17095 12.3849 6.44978 12.3849ZM9.09473 12.3849H9.56475C9.84355 12.3849 9.93913 12.2973 9.93913 12.0185V11.5484C9.93913 11.2696 9.84355 11.1899 9.56475 11.1899H9.09473C8.81586 11.1899 8.72028 11.2696 8.72028 11.5484V12.0185C8.72028 12.2973 8.81586 12.3849 9.09473 12.3849Z" fill="#798793"/>
</g>
<defs>
<clipPath id="clip0_2116_2518">
<rect width="16" height="16" fill="white"/>
</clipPath>
</defs>
</svg>
