<svg width="16" height="16" viewBox="0 0 16 16" fill="none" xmlns="http://www.w3.org/2000/svg">
<g clip-path="url(#clip0_2116_2522)">
<path d="M4.23923 8.77587H7.99217C8.27254 8.77587 8.49543 8.56016 8.49543 8.27254V3.42681C8.49543 3.14641 8.27254 2.93073 7.99217 2.93073C7.7118 2.93073 7.49609 3.14641 7.49609 3.42681V7.77646H4.23923C3.95164 7.77646 3.73596 7.99217 3.73596 8.27254C3.73596 8.56016 3.95164 8.77587 4.23923 8.77587ZM7.99935 15.3327C12.0111 15.3327 15.3327 12.004 15.3327 7.99935C15.3327 3.98759 12.004 0.666016 7.99217 0.666016C3.98759 0.666016 0.666016 3.98759 0.666016 7.99935C0.666016 12.004 3.99478 15.3327 7.99935 15.3327ZM7.99935 14.1105C4.6059 14.1105 1.89543 11.3929 1.89543 7.99935C1.89543 4.6059 4.59871 1.88824 7.99217 1.88824C11.3857 1.88824 14.1105 4.6059 14.1105 7.99935C14.1105 11.3929 11.3929 14.1105 7.99935 14.1105Z" fill="#798793"/>
</g>
<defs>
<clipPath id="clip0_2116_2522">
<rect width="16" height="16" fill="white"/>
</clipPath>
</defs>
</svg>
