<svg width="32" height="32" viewBox="0 0 32 32" fill="none" xmlns="http://www.w3.org/2000/svg">
<circle cx="16" cy="16" r="16" fill="#00BCB4"/>
<g clip-path="url(#clip0_1935_10553)">
<path d="M14.217 23.2135C14.583 23.2135 14.8725 23.0518 15.0767 22.7368L23.1208 10.0705C23.2741 9.82369 23.3337 9.63642 23.3337 9.44064C23.3337 8.97245 23.0272 8.66602 22.559 8.66602C22.2185 8.66602 22.0313 8.77668 21.827 9.10014L14.183 21.2812L10.2162 16.0887C10.0034 15.7908 9.79062 15.6716 9.48417 15.6716C8.99897 15.6716 8.66699 16.0036 8.66699 16.4718C8.66699 16.6676 8.75212 16.8889 8.91385 17.0932L13.3317 22.7198C13.5871 23.0518 13.851 23.2135 14.217 23.2135Z" fill="white"/>
</g>
<defs>
<clipPath id="clip0_1935_10553">
<rect width="16" height="16" fill="white" transform="translate(8 8)"/>
</clipPath>
</defs>
</svg>
