<svg width="19" height="18" viewBox="0 0 19 18" fill="none" xmlns="http://www.w3.org/2000/svg">
<path d="M3.1639 17.3773H11.4C13.0054 17.3773 13.8041 16.5707 13.8041 14.9499V11.3515H12.5555V14.9267C12.5555 15.7022 12.1445 16.1287 11.338 16.1287H3.22594C2.41939 16.1287 2.00837 15.7022 2.00837 14.9267V3.20842C2.00837 2.4329 2.41939 1.9986 3.22594 1.9986H11.338C12.1445 1.9986 12.5555 2.4329 12.5555 3.20842V6.77586H13.8041V3.18516C13.8041 1.57206 13.0054 0.75 11.4 0.75H3.1639C1.55856 0.75 0.759766 1.57206 0.759766 3.18516V14.9499C0.759766 16.5707 1.55856 17.3773 3.1639 17.3773ZM7.93337 9.67634H15.8981L17.0614 9.62982L16.5108 10.1571L15.2622 11.3282C15.1381 11.4368 15.076 11.5996 15.076 11.747C15.076 12.0727 15.301 12.3132 15.6189 12.3132C15.7817 12.3132 15.9058 12.2511 16.0299 12.1347L18.5581 9.51348C18.7132 9.35836 18.7598 9.21879 18.7598 9.06366C18.7598 8.9008 18.7132 8.76897 18.5581 8.61385L16.0299 5.99258C15.9058 5.87624 15.7817 5.80644 15.6189 5.80644C15.301 5.80644 15.076 6.0391 15.076 6.36483C15.076 6.51993 15.1381 6.68279 15.2622 6.79137L16.5108 7.9702L17.0614 8.49751L15.8981 8.44324H7.93337C7.60771 8.44324 7.33625 8.73019 7.33625 9.06366C7.33625 9.39714 7.60771 9.67634 7.93337 9.67634Z" fill="#798793"/>
</svg>
