<svg xmlns="http://www.w3.org/2000/svg" xmlns:xlink="http://www.w3.org/1999/xlink" viewBox="0 0 500 500"><defs><style>.cls-1{fill:none;}.cls-2{isolation:isolate;}.cls-3{clip-path:url(#clip-path);}.cls-4{clip-path:url(#clip-path-2);}.cls-5{fill:#3db0e0;mix-blend-mode:multiply;}.cls-6{fill:#2a52a1;}.cls-7{fill:#273a8f;}</style><clipPath id="clip-path"><path class="cls-1" d="M250,0C111.93,0,0,111.93,0,250S111.93,500,250,500,500,388.07,500,250,388.07,0,250,0Zm2.08,459.07C136.61,459.07,43,365.47,43,250S136.61,40.93,252.08,40.93,461.15,134.53,461.15,250,367.55,459.07,252.08,459.07ZM214.73,336.4c-3.69,4.62-7.18,9.42-10.65,14.22a20.35,20.35,0,0,0-3,5.42c-2.11,6.6,5.09,15.45,12.8,15.49a7.09,7.09,0,0,0,6.2-2.83c4.44-5.77,8.76-11.64,13.07-17.52,1.87-2.52,1.88-5.38.85-8.2a14.81,14.81,0,0,0-8.76-9.16,11,11,0,0,0-4-.85,8.08,8.08,0,0,0-6.49,3.43m-21.29-24.54c-6,8.12-12.2,16.11-18.23,24.22a12.22,12.22,0,0,0-2,4.39c-1.69,7.33,5.48,15.72,13,15.3,3.54.46,5.8-1.84,7.68-4.35,5.89-7.89,11.65-15.88,17.35-23.9a9.1,9.1,0,0,0,1.56-4.14,13.17,13.17,0,0,0-9.44-14.25,12.93,12.93,0,0,0-3.81-.7c-2.12,0-4.13.85-6.05,3.43m-21.68-24c-8,10.58-15.84,21.37-23.69,32.09a8.11,8.11,0,0,0-1.12,2.47c-1.77,6.15,4.48,15.63,12.75,15.43,3.26.11,5-.69,7.75-4.08,3.11-3.86,6.11-7.8,9.05-11.79,4.53-6.15,9-12.29,13.37-18.58a12.06,12.06,0,0,0,2.1-5.69c.38-4.87-1.95-8.7-5.74-11.58a11.37,11.37,0,0,0-6.8-2.61c-2.81,0-5.46,1.43-7.67,4.34M135,284.23a119.72,119.72,0,0,0-8.41,12,8.26,8.26,0,0,0-.9,5.21c.76,5.23,3.9,8.89,8.63,11.08,4.36,2,7.55,1.5,10.75-2.16A123.71,123.71,0,0,0,153.68,299c.9-1.3,1.07-3.12,1.57-4.7-.41-5.57-3-9.74-7.81-12.26a11.59,11.59,0,0,0-5.32-1.42,9,9,0,0,0-7.15,3.62m24-101.17q-12,21.1-23.93,42.21c-6.61,11.69-13.14,23.43-19.8,35.11a2.58,2.58,0,0,0,.41,3.51c3.36,3.91,6.58,7.94,9.85,11.93.94,1.13,1.88,2.28,2.89,3.53,1.25-.89,2.32-1.62,3.35-2.4a16,16,0,0,1,8.61-3.41c9.09-.56,15.42,3.75,19.77,11.42.59,1.05,1.1,2.14,1.74,3.41a43.22,43.22,0,0,1,3.5-4.61c1.95-2,3.86-4.23,6.24-5.48,10.72-5.59,25.52,2.52,27.3,14.82.39,2.68.43,5.41.64,8.14,6.48-.08,11.57,2.82,15.6,7.45a20.5,20.5,0,0,1,5,16.75c8.88.78,15.56,4.52,19.55,12.44,4.11,8.2,1.67,15.54-3.34,22.46a14.38,14.38,0,0,0,1.41.79c10.25,3.83,20.75,6.42,31.8,6.46,7.77,0,13.06-4.13,17.69-9.66.77-.92.69-1.56-.45-2.14-2.73-1.37-5.41-2.87-8.14-4.25-8.2-4.15-16.43-8.25-24.62-12.41a3,3,0,0,1-1.6-4,3.2,3.2,0,0,1,4.15-1.9,16.56,16.56,0,0,1,2.37.91c8.84,4.18,17.62,8.47,26.53,12.5a51.27,51.27,0,0,0,11.92,4.2c6.76,1.19,12.2-1.05,14.67-7.13,2.27-5.59,2-6.95-3.17-10.11-8.3-5.05-16.74-9.85-25.09-14.81-4.88-2.9-9.73-5.84-14.53-8.87-2-1.26-2.36-2.59-1.45-4,1.31-2,3-2.58,4.93-1.54,2.64,1.41,5.28,2.85,7.89,4.33,11.52,6.52,23.05,13,34.52,19.62a16.41,16.41,0,0,0,11.93,1.6,11.54,11.54,0,0,0,9.66-10.79,23.42,23.42,0,0,0-.14-4.88,3,3,0,0,0-1.17-1.94c-9.8-6-19.67-11.85-29.46-17.84-7.23-4.42-14.4-9-21.54-13.52-1.92-1.21-2.2-2.56-1.25-4.32s2.5-1.4,3.9-.78a70.64,70.64,0,0,1,7.37,3.59c16.06,9.5,32.06,19.08,48.1,28.6a5.46,5.46,0,0,0,2.5.91,33.71,33.71,0,0,0,6.44-.28,13,13,0,0,0,5.46-1.81A12.16,12.16,0,0,0,358.7,289a32.87,32.87,0,0,0-3.93-3.81C347.53,279.41,340.3,273.62,333,268a526.77,526.77,0,0,0-86.5-54.4,4.31,4.31,0,0,0-2.73-.18c-2.77.71-5.45,1.79-8.23,2.4a8.56,8.56,0,0,0-5.32,3.57,70.51,70.51,0,0,1-17.12,16.78c-8.81,5.85-18.26,9.39-29.1,8.37-4.55-.43-9.54-4.69-9.38-10,.15-4.53.72-8.9,3-12.78,3.35-5.66,7-11.17,10.55-16.69,2.41-3.69,5-7.28,7.69-11.27-2.79-.54-5.13-1-7.48-1.44-6.41-1.14-12.93-1.89-18.88-4.75-3.39-1.63-6.62-3.57-10-5.41-.19.32-.35.59-.52.86m103.06-7h-2.53c-13.48.21-26.81,1.47-39.91,4.83-3.91,1-7.27,2.75-9.63,6.19q-12.89,18.78-25.82,37.54c-2.2,3.19-2.09,6.79-1.81,10.39a2.47,2.47,0,0,0,1.31,1.74,10.4,10.4,0,0,0,3.76.81A32.85,32.85,0,0,0,203,233.71a61.74,61.74,0,0,0,22.64-20.61,6,6,0,0,1,2.62-2.36c4.67-1.62,9.44-2.94,14.13-4.52a7.37,7.37,0,0,1,6.19.48c12.2,6.6,24.66,12.79,36.59,19.86C311.24,242,335.59,260,359.11,279.13a2.25,2.25,0,0,0,3,.32c8.62-4.74,15.22-11.81,22-18.72a1.85,1.85,0,0,0,0-1.67c-.94-1.86-2-3.65-3-5.46q-19.83-35.08-39.64-70.17a2.54,2.54,0,0,0-3.26-1.45c-5,1.06-10,2.66-15.24,2-5-.65-10.07-1.36-15-2.48-13-2.94-26-5.62-39.32-5.62q-3.24,0-6.53.22M130.36,149.76c-2.45,4.06-5,8.11-7.29,12.26q-19.71,35.11-39.38,70.27-5,9-10,18.08v1.18c8.09,6.2,16.92,11.19,25.87,16,1.35.73,2.24.53,3-.82,3.89-6.56,8-13,11.73-19.65q19.7-34.9,39.21-69.93c2.13-3.79,4.11-7.67,6.27-11.73-.38-.21-.61-.34-.83-.48q-12.94-8.06-25.89-16.1a2,2,0,0,0-1.07-.37c-.72,0-1.2.58-1.63,1.29m236.34-.64c-7.91,4.82-15.83,9.57-23.66,14.51-2.73,1.73-2.63,2-1,4.87,8.13,14.79,16.19,29.64,24.48,44.34,10.15,18,20.54,35.87,30.75,53.84.91,1.6,1.81,1.72,3.25.91,2.9-1.63,5.92-3.06,8.75-4.79,5.75-3.54,11.41-7.23,17.11-10.87v-1.17a5.6,5.6,0,0,1-.67-.87c-5-9.43-9.9-19-15.15-28.27C398.81,200.77,386.9,180,375,159.25c-2.09-3.66-4.4-7.2-6.62-10.81a12.87,12.87,0,0,0-1.7.68"/></clipPath><clipPath id="clip-path-2"><path class="cls-1" d="M56.48,56.47c106.87-106.87,280.17-106.88,387.06,0s106.85,280.16,0,387-280.17,106.89-387,0-106.89-280.17,0-387.06"/></clipPath></defs><g class="cls-2"><g id="Layer_1" data-name="Layer 1"><g class="cls-3"><g class="cls-4"><path class="cls-5" d="M298.62,201.37a740.19,740.19,0,0,1,221.25,94.28A273.72,273.72,0,0,0,204.35-19.87a740,740,0,0,1,94.27,221.24"/><path class="cls-5" d="M307.1,517.69a272.48,272.48,0,0,0,74.7-27.76,362.5,362.5,0,0,0-70.29-223.44,749.24,749.24,0,0,1-4.41,251.2"/><path class="cls-6" d="M381.8,489.93A274.31,274.31,0,0,0,519.87,295.65a740.19,740.19,0,0,0-221.25-94.28q7.9,32.31,12.89,65.12A362.5,362.5,0,0,1,381.8,489.93"/><path class="cls-5" d="M-17.69,192.9a749.08,749.08,0,0,1,251.35-4.39A362.52,362.52,0,0,0,10.08,118.18,271.87,271.87,0,0,0-17.69,192.9"/><path class="cls-6" d="M10.08,118.18a362.52,362.52,0,0,1,223.58,70.33q32.68,5,65,12.86A740,740,0,0,0,204.35-19.87,274.24,274.24,0,0,0,10.08,118.18"/><path class="cls-6" d="M56.48,443.53A273.42,273.42,0,0,0,307.1,517.69a749.24,749.24,0,0,0,4.41-251.2,364.49,364.49,0,0,0-34-39.82l-2-2.17a365.08,365.08,0,0,0-41.85-36A749.08,749.08,0,0,0-17.69,192.9,273.42,273.42,0,0,0,56.48,443.53"/><path class="cls-7" d="M311.51,266.49q-5-32.78-12.89-65.12-32.22-7.87-65-12.86a365.08,365.08,0,0,1,41.85,36l2,2.17a364.49,364.49,0,0,1,34,39.82"/></g></g></g></g></svg>