<svg width="19" height="13" viewBox="0 0 19 13" fill="none" xmlns="http://www.w3.org/2000/svg">
<path d="M2.85388 12.728H14.0114C15.2051 12.728 15.9054 12.0343 15.9054 10.6605V7.9662C15.6386 8.01286 15.1784 8.01952 14.8317 7.9662V10.6138C14.8317 11.3008 14.4515 11.6542 13.7912 11.6542H2.86721C2.2003 11.6542 1.8335 11.3008 1.8335 10.6072V2.59087C1.8335 1.93062 2.18029 1.5905 2.82053 1.5905H4.22772C4.66788 1.5905 4.93465 1.70387 5.27477 1.99064L5.68159 2.33077C6.11509 2.6909 6.46852 2.81762 7.12879 2.81762H11.0836C11.1636 2.43748 11.257 2.11736 11.4437 1.74389H7.4089C6.95538 1.74389 6.68193 1.63718 6.3485 1.35041L5.94169 1.01695C5.50152 0.643479 5.1614 0.523435 4.50115 0.523435H2.60045C1.43335 0.523435 0.759766 1.19035 0.759766 2.53084V10.6605C0.759766 12.0411 1.46003 12.728 2.85388 12.728ZM1.41334 5.25852H11.2704C11.1503 4.9384 11.0636 4.59828 11.0303 4.25148H1.41334V5.25852ZM15.0117 7.15255H15.5853C15.792 7.15255 15.9521 7.02582 15.9987 6.81912L16.1588 6.15885C16.2522 6.13216 16.3589 6.09215 16.4522 6.04549L17.0258 6.39229C17.2058 6.499 17.3926 6.499 17.5526 6.34557L17.9461 5.94544C18.0862 5.79205 18.1062 5.59865 17.9861 5.41191L17.646 4.8317C17.706 4.73833 17.7261 4.6583 17.7661 4.56493L18.4196 4.40487C18.633 4.35819 18.7598 4.19813 18.7598 3.99139V3.42451C18.7598 3.22443 18.6197 3.07771 18.4196 3.02436L17.7727 2.8643C17.7261 2.75093 17.686 2.66423 17.6527 2.59087L18.0128 1.99731C18.1195 1.82391 18.0996 1.60384 17.9595 1.47045L17.5526 1.07697C17.4059 0.930251 17.2058 0.896907 17.0391 1.00361L16.4522 1.37042C16.3455 1.31706 16.2522 1.29038 16.1588 1.25704L15.9987 0.590126C15.9521 0.390052 15.792 0.25 15.5853 0.25H15.0117C14.805 0.25 14.6382 0.396721 14.5982 0.590126L14.4449 1.2437C14.3315 1.29038 14.2381 1.31706 14.138 1.37042L13.5645 1.00361C13.4045 0.903577 13.1911 0.930251 13.0443 1.07697L12.6508 1.47045C12.5108 1.61717 12.4708 1.82391 12.5775 1.99731L12.9443 2.59087C12.911 2.66423 12.8709 2.76427 12.8309 2.8643L12.1773 3.02436C11.9772 3.07771 11.8439 3.2311 11.8439 3.42451V3.99139C11.8439 4.19813 11.9772 4.35819 12.1773 4.40487L12.8376 4.56493C12.8776 4.6583 12.911 4.73833 12.951 4.8317L12.6108 5.41858C12.5041 5.59865 12.5175 5.79872 12.6575 5.94544L13.0443 6.34557C13.1911 6.499 13.3978 6.499 13.5712 6.39229L14.1514 6.04549C14.2648 6.09881 14.3581 6.13216 14.4449 6.15885L14.5982 6.81912C14.6382 7.01916 14.805 7.15255 15.0117 7.15255ZM15.3052 4.81836C14.6782 4.81836 14.1914 4.32485 14.1914 3.70461C14.1914 3.09772 14.6782 2.59754 15.3052 2.59087C15.9054 2.57753 16.4122 3.09772 16.4122 3.70461C16.4122 4.32485 15.9054 4.81836 15.3052 4.81836Z" fill="#798793"/>
</svg>
