<svg width="12" height="10" viewBox="0 0 12 10" fill="none" xmlns="http://www.w3.org/2000/svg">
<path d="M11.5789 4.94119C11.5789 4.77964 11.5166 4.63102 11.3919 4.50824L7.25788 0.23683C7.12071 0.0946651 6.98976 0.0429688 6.84014 0.0429688C6.53457 0.0429688 6.29764 0.275602 6.29764 0.598703C6.29764 0.753792 6.34754 0.902418 6.44731 1.00581L7.84402 2.47916L10.3194 4.81842L10.4441 4.49532L8.43638 4.36607H0.548707C0.224471 4.36607 0 4.60517 0 4.94119C0 5.27722 0.224471 5.51632 0.548707 5.51632H8.43638L10.4441 5.38708L10.3194 5.07044L7.84402 7.40326L6.44731 8.87656C6.34754 8.9735 6.29764 9.12862 6.29764 9.28368C6.29764 9.60682 6.53457 9.83941 6.84014 9.83941C6.98976 9.83941 7.12071 9.78129 7.24543 9.65849L11.3919 5.37415C11.5166 5.25137 11.5789 5.10275 11.5789 4.94119Z" fill="white"/>
</svg>
