<svg width="16" height="16" viewBox="0 0 16 16" fill="none" xmlns="http://www.w3.org/2000/svg">
<path d="M0.666504 6.58499C0.666504 9.88761 3.35364 12.5747 6.65628 12.5747C7.9623 12.5747 9.15577 12.1544 10.1391 11.4489L13.832 15.1493C14.0046 15.322 14.2298 15.4045 14.47 15.4045C14.9804 15.4045 15.3332 15.0217 15.3332 14.5188C15.3332 14.2786 15.2431 14.0609 15.0855 13.9033L11.415 10.2104C12.1882 9.20457 12.646 7.95109 12.646 6.58499C12.646 3.28235 9.9589 0.595215 6.65628 0.595215C3.35364 0.595215 0.666504 3.28235 0.666504 6.58499ZM1.95003 6.58499C1.95003 3.98792 4.05921 1.87874 6.65628 1.87874C9.25332 1.87874 11.3625 3.98792 11.3625 6.58499C11.3625 9.18203 9.25332 11.2912 6.65628 11.2912C4.05921 11.2912 1.95003 9.18203 1.95003 6.58499Z" fill="#798793"/>
</svg>
