<svg width="16" height="12" viewBox="0 0 16 12" fill="none" xmlns="http://www.w3.org/2000/svg">
<path d="M2.13062 11.5962H13.8694C15.2943 11.5962 16 10.8906 16 9.49276V5.47581C16 4.86512 15.9186 4.55978 15.6132 4.18658L13.2723 1.28921C12.4784 0.312108 12.1255 0.0135498 10.9177 0.0135498H5.08227C3.87447 0.0135498 3.52842 0.312108 2.73452 1.28921L0.386769 4.18658C0.0882105 4.55978 0 4.86512 0 5.47581V9.49276C0 10.8973 0.712469 11.5962 2.13062 11.5962ZM2.14419 10.5038C1.46565 10.5038 1.09245 10.1442 1.09245 9.4385V6.05933H5.39441C5.55726 7.3282 6.62256 8.26459 8 8.26459C9.37744 8.26459 10.4428 7.32142 10.6056 6.05933H14.9076V9.4385C14.9076 10.1442 14.5275 10.5038 13.8558 10.5038H2.14419ZM8 7.26039C7.04328 7.26039 6.42581 6.42579 6.42581 5.63866V5.6183C6.42581 5.33332 6.25616 5.06869 5.9033 5.06869H1.43172C1.20781 5.06869 1.16031 4.8719 1.27566 4.72941L3.79305 1.55384C4.12553 1.13314 4.50552 0.963506 5.00085 0.963506H10.9992C11.4945 0.963506 11.8745 1.13314 12.2069 1.55384L14.7311 4.72941C14.8397 4.8719 14.799 5.06869 14.5751 5.06869H10.0967C9.74384 5.06869 9.58102 5.33332 9.58102 5.6183V5.63866C9.58102 6.42579 8.96355 7.26039 8 7.26039ZM10.8499 1.96096H5.15013C4.96692 1.96096 4.82443 2.10346 4.82443 2.28666C4.82443 2.46987 4.96692 2.61236 5.15013 2.61236H10.8499C11.0331 2.61236 11.1756 2.46987 11.1756 2.28666C11.1756 2.10346 11.0331 1.96096 10.8499 1.96096ZM11.7524 3.49447H4.24767C4.05768 3.49447 3.9084 3.6641 3.9084 3.84731C3.9084 4.03052 4.05768 4.18658 4.24767 4.18658H11.7524C11.9423 4.18658 12.0916 4.03052 12.0916 3.84731C12.0916 3.6641 11.9423 3.49447 11.7524 3.49447Z" fill="#0A0A0A"/>
</svg>
