<svg width="13" height="18" viewBox="0 0 13 18" fill="none" xmlns="http://www.w3.org/2000/svg">
<path d="M3.60975 8.08997C3.9589 8.08997 4.24119 7.80768 4.24119 7.45851C4.24119 7.10935 3.9589 6.82706 3.60975 6.82706C3.26802 6.82706 2.97829 7.11683 2.97829 7.45851C2.97829 7.80026 3.26802 8.08997 3.60975 8.08997ZM3.60975 10.7198C3.9589 10.7198 4.24119 10.4375 4.24119 10.0884C4.24119 9.73919 3.9589 9.46432 3.60975 9.46432C3.26059 9.46432 2.97829 9.7466 2.97829 10.0884C2.97829 10.4375 3.26059 10.7198 3.60975 10.7198ZM3.60975 13.5056C3.9589 13.5056 4.24119 13.2233 4.24119 12.8741C4.24119 12.525 3.9589 12.2427 3.60975 12.2427C3.26802 12.2427 2.97829 12.5324 2.97829 12.8741C2.97829 13.2159 3.26802 13.5056 3.60975 13.5056ZM5.59324 7.91912H10.0505C10.3031 7.91912 10.5111 7.71113 10.5111 7.45851C10.5111 7.20596 10.3031 6.99049 10.0505 6.99049H5.59324C5.34065 6.99049 5.12522 7.20596 5.12522 7.45851C5.12522 7.71113 5.34065 7.91912 5.59324 7.91912ZM5.59324 10.5563H10.0505C10.3106 10.5563 10.5111 10.3483 10.5111 10.0884C10.5111 9.83574 10.3106 9.63516 10.0505 9.63516H5.59324C5.33323 9.63516 5.12522 9.83574 5.12522 10.0884C5.12522 10.3483 5.33323 10.5563 5.59324 10.5563ZM5.59324 13.3348H10.0505C10.3031 13.3348 10.5111 13.1267 10.5111 12.8741C10.5111 12.6216 10.3106 12.4135 10.0505 12.4135H5.59324C5.33323 12.4135 5.12522 12.6216 5.12522 12.8741C5.12522 13.1267 5.34065 13.3348 5.59324 13.3348ZM2.8 18H10.6894C12.2272 18 12.9923 17.2274 12.9923 15.6673V4.40529C12.9923 2.88238 12.2569 2.07264 10.7711 2.07264H10.5928C10.6003 2.13207 10.6003 2.19893 10.6003 2.25836V2.92695C10.6003 3.04582 10.5928 3.16468 10.5705 3.26868H10.7489C11.4471 3.26868 11.7963 3.72183 11.7963 4.42015V15.6525C11.7963 16.3954 11.4026 16.804 10.63 16.804H2.85943C2.08684 16.804 1.69311 16.3954 1.69311 15.6525V4.42015C1.69311 3.72183 2.04226 3.26868 2.74057 3.26868H2.91886C2.89658 3.16468 2.88915 3.04582 2.88915 2.92695V2.25836C2.88915 2.19893 2.88915 2.13207 2.89658 2.07264H2.71829C1.23253 2.07264 0.49707 2.88238 0.49707 4.40529V15.6673C0.49707 17.2274 1.26224 18 2.8 18ZM4.4492 3.77383H9.04023C9.47105 3.77383 9.73108 3.49897 9.73108 3.03839V2.25836C9.73108 1.79777 9.47105 1.5229 9.04023 1.5229H8.35673C8.30475 0.683448 7.60642 0 6.7447 0C5.88296 0 5.18465 0.683448 5.13265 1.5229H4.4492C4.01833 1.5229 3.75832 1.79777 3.75832 2.25836V3.03839C3.75832 3.49897 4.01833 3.77383 4.4492 3.77383ZM6.7447 2.22864C6.38812 2.22864 6.0984 1.9315 6.0984 1.58234C6.0984 1.21833 6.38812 0.9286 6.7447 0.9286C7.10131 0.9286 7.39101 1.21833 7.39101 1.58234C7.39101 1.9315 7.10131 2.22864 6.7447 2.22864Z" fill="#798793"/>
</svg>
