<svg width="10" height="10" viewBox="0 0 10 10" fill="none" xmlns="http://www.w3.org/2000/svg">
<g clip-path="url(#clip0_386_5506)">
<path d="M5.00099 10C5.27627 10 5.47214 9.80941 5.47214 9.53417V2.56221L5.4192 0.98465L5.11745 1.09052L7.01795 3.17099L8.22491 4.35681C8.30961 4.44151 8.4314 4.48386 8.55842 4.48386C8.82314 4.48386 9.01369 4.28269 9.01369 4.0233C9.01369 3.89624 8.97136 3.78508 8.87076 3.6792L5.35568 0.158814C5.25509 0.0529383 5.13333 0 5.00099 0C4.86864 0 4.74689 0.0529383 4.64631 0.158814L1.13651 3.6792C1.03593 3.78508 0.988281 3.89624 0.988281 4.0233C0.988281 4.28269 1.17886 4.48386 1.44355 4.48386C1.5706 4.48386 1.69765 4.44151 1.77706 4.35681L2.98405 3.17099L4.87923 1.09052L4.58278 0.98465L4.52984 2.56221V9.53417C4.52984 9.80941 4.72571 10 5.00099 10Z" fill="#299764"/>
</g>
<defs>
<clipPath id="clip0_386_5506">
<rect width="10" height="10" fill="white"/>
</clipPath>
</defs>
</svg>
