<svg width="10" height="10" viewBox="0 0 10 10" fill="none" xmlns="http://www.w3.org/2000/svg">
<g clip-path="url(#clip0_1_4)">
<mask id="mask0_1_4" style="mask-type:luminance" maskUnits="userSpaceOnUse" x="0" y="0" width="10" height="10">
<path d="M0 10L10 10L10 0L8.74228e-07 -8.74228e-07L0 10Z" fill="white"/>
</mask>
<g mask="url(#mask0_1_4)">
<path d="M4.99901 -3.50802e-07C4.72373 -3.74868e-07 4.52786 0.190589 4.52786 0.465829L4.52786 7.43779L4.5808 9.01535L4.88255 8.90948L2.98205 6.82901L1.77509 5.64319C1.69039 5.55849 1.5686 5.51614 1.44158 5.51614C1.17686 5.51614 0.98631 5.71731 0.98631 5.9767C0.98631 6.10376 1.02864 6.21492 1.12924 6.3208L4.64432 9.84119C4.74491 9.94706 4.86667 10 4.99901 10C5.13136 10 5.25311 9.94706 5.35369 9.84119L8.86349 6.3208C8.96407 6.21492 9.01172 6.10376 9.01172 5.9767C9.01172 5.71731 8.82114 5.51614 8.55645 5.51614C8.4294 5.51614 8.30235 5.55849 8.22294 5.64319L7.01595 6.82901L5.12077 8.90948L5.41722 9.01535L5.47016 7.43779L5.47016 0.46583C5.47016 0.19059 5.27429 -3.26736e-07 4.99901 -3.50802e-07Z" fill="#D23F3A"/>
</g>
</g>
<defs>
<clipPath id="clip0_1_4">
<rect width="10" height="10" fill="white"/>
</clipPath>
</defs>
</svg>
